<svg width="20" height="20" viewBox="0 0 20 20" fill="none" xmlns="http://www.w3.org/2000/svg">
<path d="M19.99 6.7256L19.1512 11.5372C19.0478 12.0687 18.6243 12.3919 18.136 12.398H5.90833L5.66556 13.7664H17.3193C17.933 13.813 18.3492 14.2477 18.3567 14.8037C18.3121 15.4161 17.8774 15.8335 17.3193 15.8411H4.42955C3.73243 15.7784 3.31675 15.2227 3.39218 14.6051L3.94396 11.6034L3.10525 3.17203L0.721532 2.42165C0.139015 2.19036 -0.0987351 1.6634 0.0373149 1.11943C0.263532 0.552512 0.805582 0.293496 1.33953 0.435212L4.3854 1.40636C4.79573 1.56018 5.03178 1.89606 5.09168 2.28923L5.26825 3.96666L19.085 5.51166C19.7198 5.64918 20.0645 6.15203 19.99 6.7256V6.7256ZM7.58786 18.0192C7.58786 18.8938 6.87886 19.6029 6.00423 19.6029C5.12961 19.6029 4.42061 18.8938 4.42061 18.0192C4.42061 17.1446 5.12963 16.4356 6.00423 16.4356C6.87885 16.4356 7.58786 17.1446 7.58786 18.0192ZM17.0421 18.0192C17.0421 18.8938 16.333 19.6029 15.4584 19.6029C14.5838 19.6029 13.8748 18.8938 13.8748 18.0192C13.8748 17.1446 14.5838 16.4356 15.4584 16.4356C16.333 16.4356 17.0421 17.1446 17.0421 18.0192Z" fill="white"/>
</svg>
