<svg width="20" height="20" viewBox="0 0 20 20" fill="none" xmlns="http://www.w3.org/2000/svg">
<path d="M4.16667 17.5C3.70833 17.5 3.31583 17.3369 2.98917 17.0108C2.66306 16.6842 2.5 16.2917 2.5 15.8333V4.16667C2.5 3.70833 2.66306 3.31583 2.98917 2.98917C3.31583 2.66306 3.70833 2.5 4.16667 2.5H7.5C7.95833 2.5 8.35083 2.66306 8.6775 2.98917C9.00361 3.31583 9.16667 3.70833 9.16667 4.16667V15.8333C9.16667 16.2917 9.00361 16.6842 8.6775 17.0108C8.35083 17.3369 7.95833 17.5 7.5 17.5H4.16667ZM12.5 8.33333C12.0417 8.33333 11.6494 8.17 11.3233 7.84333C10.9967 7.51722 10.8333 7.125 10.8333 6.66667V4.16667C10.8333 3.70833 10.9967 3.31583 11.3233 2.98917C11.6494 2.66306 12.0417 2.5 12.5 2.5H15.8333C16.2917 2.5 16.6842 2.66306 17.0108 2.98917C17.3369 3.31583 17.5 3.70833 17.5 4.16667V6.66667C17.5 7.125 17.3369 7.51722 17.0108 7.84333C16.6842 8.17 16.2917 8.33333 15.8333 8.33333H12.5ZM12.5 17.5C12.0417 17.5 11.6494 17.3369 11.3233 17.0108C10.9967 16.6842 10.8333 16.2917 10.8333 15.8333V11.6667C10.8333 11.2083 10.9967 10.8158 11.3233 10.4892C11.6494 10.1631 12.0417 10 12.5 10H15.8333C16.2917 10 16.6842 10.1631 17.0108 10.4892C17.3369 10.8158 17.5 11.2083 17.5 11.6667V15.8333C17.5 16.2917 17.3369 16.6842 17.0108 17.0108C16.6842 17.3369 16.2917 17.5 15.8333 17.5H12.5Z" fill="#ffffff"/>
</svg>
