<svg width="32" height="32" viewBox="0 0 32 32" fill="none" xmlns="http://www.w3.org/2000/svg">
<path fill-rule="evenodd" clip-rule="evenodd" d="M6.39995 4.80005C4.63264 4.80005 3.19995 6.23274 3.19995 8.00005V24.0001C3.19995 25.7674 4.63264 27.2001 6.39995 27.2001H25.5999C27.3673 27.2001 28.7999 25.7674 28.7999 24.0001V8.00005C28.7999 6.23274 27.3673 4.80005 25.5999 4.80005H6.39995ZM25.5999 24.0001H6.39995L12.8 11.2L17.6 20.8001L20.8 14.4L25.5999 24.0001Z" fill="#1F3A89"/>
<path d="M25.5999 20.7999C28.2509 20.7999 30.3999 22.949 30.3999 25.5999C30.3999 28.2509 28.2509 30.3999 25.5999 30.3999C22.949 30.3999 20.7999 28.2509 20.7999 25.5999C20.7999 22.949 22.949 20.7999 25.5999 20.7999Z" fill="#F6F6F7"/>
<path d="M23.9999 25.0666L25.5999 23.4666M25.5999 23.4666L27.1999 25.0666M25.5999 23.4666L25.5999 27.7333M25.5999 20.7999C28.2509 20.7999 30.3999 22.949 30.3999 25.5999C30.3999 28.2509 28.2509 30.3999 25.5999 30.3999C22.949 30.3999 20.7999 28.2509 20.7999 25.5999C20.7999 22.949 22.949 20.7999 25.5999 20.7999Z" stroke="#1F3A89" stroke-linecap="round" stroke-linejoin="round"/>
</svg>
