<svg width="48" height="51" viewBox="0 0 48 51" fill="none" xmlns="http://www.w3.org/2000/svg">
<path d="M28.7998 28.8H33.5998V33.6H28.7998V28.8ZM11.9998 4.79999H35.9998C36.1757 4.80005 36.3494 4.83878 36.5087 4.91344C36.6679 4.98809 36.8088 5.09684 36.9214 5.23199L42.9214 12.432C43.2022 12.768 43.1998 12.9384 43.1998 13.1568V16.8C43.1998 18.9312 42.2734 20.8488 40.7998 22.1664V42C40.7998 42.3182 40.6734 42.6235 40.4483 42.8485C40.2233 43.0736 39.9181 43.2 39.5998 43.2H23.9998V27.6C23.9998 27.2817 23.8734 26.9765 23.6483 26.7515C23.4233 26.5264 23.1181 26.4 22.7998 26.4H13.1998C12.8815 26.4 12.5763 26.5264 12.3513 26.7515C12.1262 26.9765 11.9998 27.2817 11.9998 27.6V43.2H8.3998C8.08155 43.2 7.77632 43.0736 7.55128 42.8485C7.32623 42.6235 7.1998 42.3182 7.1998 42V22.1664C5.7262 20.8464 4.7998 18.9312 4.7998 16.8V13.2C4.79993 12.9193 4.89844 12.6476 5.0782 12.432L11.0782 5.23199C11.1908 5.09684 11.3317 4.98809 11.4909 4.91344C11.6502 4.83878 11.8239 4.80005 11.9998 4.79999ZM7.1998 14.4V16.8C7.1998 18.073 7.70552 19.2939 8.60569 20.1941C9.50587 21.0943 10.7268 21.6 11.9998 21.6C13.2728 21.6 14.4937 21.0943 15.3939 20.1941C16.2941 19.2939 16.7998 18.073 16.7998 16.8V14.4H7.1998ZM19.1998 14.4V16.8C19.1998 18.073 19.7055 19.2939 20.6057 20.1941C21.5059 21.0943 22.7268 21.6 23.9998 21.6C25.2728 21.6 26.4937 21.0943 27.3939 20.1941C28.2941 19.2939 28.7998 18.073 28.7998 16.8V14.4H19.1998ZM31.1998 14.4V16.8C31.1998 18.073 31.7055 19.2939 32.6057 20.1941C33.5059 21.0943 34.7268 21.6 35.9998 21.6C37.2728 21.6 38.4937 21.0943 39.3939 20.1941C40.2941 19.2939 40.7998 18.073 40.7998 16.8V14.4H31.1998ZM12.5614 7.19999L8.563 12H17.1358L18.7342 7.19999H12.5614ZM28.3342 12L26.7358 7.19999H21.2638L19.6654 12H28.3342ZM30.8638 12H39.439L35.4382 7.19999H29.2654L30.8638 12ZM26.3998 27.6V34.8C26.3998 35.1182 26.5262 35.4235 26.7513 35.6485C26.9763 35.8736 27.2815 36 27.5998 36H34.7998C35.1181 36 35.4233 35.8736 35.6483 35.6485C35.8734 35.4235 35.9998 35.1182 35.9998 34.8V27.6C35.9998 27.2817 35.8734 26.9765 35.6483 26.7515C35.4233 26.5264 35.1181 26.4 34.7998 26.4H27.5998C27.2815 26.4 26.9763 26.5264 26.7513 26.7515C26.5262 26.9765 26.3998 27.2817 26.3998 27.6ZM21.5998 43.2V28.8H14.3998V43.2H21.5998Z" fill="#3B82F5"/>
<path d="M29 44C29 40.134 32.134 37 36 37C39.866 37 43 40.134 43 44C43 47.866 39.866 51 36 51C32.134 51 29 47.866 29 44Z" fill="white"/>
<path d="M34.25 44L35.4167 45.1667L37.75 42.8333M41.25 44C41.25 46.8995 38.8995 49.25 36 49.25C33.1005 49.25 30.75 46.8995 30.75 44C30.75 41.1005 33.1005 38.75 36 38.75C38.8995 38.75 41.25 41.1005 41.25 44Z" stroke="#3B82F5" stroke-width="2" stroke-linecap="round" stroke-linejoin="round"/>
</svg>
