<svg width="18" height="18" viewBox="0 0 18 18" fill="none" xmlns="http://www.w3.org/2000/svg">
<g clip-path="url(#clip0_81_413)">
<path d="M3.34125 1.51875C3.44687 1.39526 3.57799 1.29612 3.72559 1.22815C3.87318 1.16018 4.03375 1.12499 4.19625 1.125H13.8038C13.9662 1.12499 14.1268 1.16018 14.2744 1.22815C14.422 1.29612 14.5531 1.39526 14.6587 1.51875L17.5939 4.94325C17.8559 5.24906 18 5.63851 18 6.04125V6.32812C18.0001 6.88497 17.8261 7.42793 17.5025 7.8811C17.1789 8.33427 16.7219 8.67502 16.1951 8.85571C15.6684 9.03641 15.0984 9.04802 14.5648 8.88893C14.0311 8.72984 13.5605 8.40799 13.2188 7.96838C12.9692 8.28986 12.6493 8.54997 12.2837 8.72879C11.9181 8.9076 11.5164 9.00037 11.1094 9C10.7024 9.00045 10.3006 8.90772 9.93501 8.7289C9.56937 8.55008 9.24953 8.28993 9 7.96838C8.75047 8.28993 8.43063 8.55008 8.06499 8.7289C7.69936 8.90772 7.29764 9.00045 6.89062 9C6.48361 9.00045 6.08189 8.90772 5.71626 8.7289C5.35062 8.55008 5.03078 8.28993 4.78125 7.96838C4.43947 8.40799 3.96887 8.72984 3.43523 8.88893C2.90159 9.04802 2.33158 9.03641 1.80486 8.85571C1.27815 8.67502 0.821051 8.33427 0.497455 7.8811C0.17386 7.42793 -6.14234e-05 6.88497 1.62726e-08 6.32812V6.04125C1.41835e-05 5.63851 0.144064 5.24906 0.406125 4.94325L3.34238 1.51762L3.34125 1.51875ZM5.34375 6.32812C5.34375 6.73838 5.50672 7.13184 5.79682 7.42193C6.08691 7.71203 6.48037 7.875 6.89062 7.875C7.30088 7.875 7.69434 7.71203 7.98443 7.42193C8.27453 7.13184 8.4375 6.73838 8.4375 6.32812C8.4375 6.17894 8.49676 6.03587 8.60225 5.93038C8.70774 5.82489 8.85082 5.76562 9 5.76562C9.14918 5.76562 9.29226 5.82489 9.39775 5.93038C9.50324 6.03587 9.5625 6.17894 9.5625 6.32812C9.5625 6.73838 9.72547 7.13184 10.0156 7.42193C10.3057 7.71203 10.6991 7.875 11.1094 7.875C11.5196 7.875 11.9131 7.71203 12.2032 7.42193C12.4933 7.13184 12.6562 6.73838 12.6562 6.32812C12.6562 6.17894 12.7155 6.03587 12.821 5.93038C12.9265 5.82489 13.0696 5.76562 13.2188 5.76562C13.3679 5.76562 13.511 5.82489 13.6165 5.93038C13.722 6.03587 13.7812 6.17894 13.7812 6.32812C13.7812 6.73838 13.9442 7.13184 14.2343 7.42193C14.5244 7.71203 14.9179 7.875 15.3281 7.875C15.7384 7.875 16.1318 7.71203 16.4219 7.42193C16.712 7.13184 16.875 6.73838 16.875 6.32812V6.04125C16.875 5.90718 16.8271 5.77752 16.74 5.67562L13.8038 2.25H4.19625L1.26 5.67562C1.17287 5.77752 1.12499 5.90718 1.125 6.04125V6.32812C1.125 6.73838 1.28797 7.13184 1.57807 7.42193C1.86816 7.71203 2.26162 7.875 2.67188 7.875C3.08213 7.875 3.47559 7.71203 3.76568 7.42193C4.05578 7.13184 4.21875 6.73838 4.21875 6.32812C4.21875 6.17894 4.27801 6.03587 4.3835 5.93038C4.48899 5.82489 4.63207 5.76562 4.78125 5.76562C4.93043 5.76562 5.07351 5.82489 5.179 5.93038C5.28449 6.03587 5.34375 6.17894 5.34375 6.32812ZM1.6875 9.5625C1.83668 9.5625 1.97976 9.62176 2.08525 9.72725C2.19074 9.83274 2.25 9.97582 2.25 10.125V16.875H3.375V11.25C3.375 10.9516 3.49353 10.6655 3.7045 10.4545C3.91548 10.2435 4.20163 10.125 4.5 10.125H7.875C8.17337 10.125 8.45952 10.2435 8.6705 10.4545C8.88147 10.6655 9 10.9516 9 11.25V16.875H15.75V10.125C15.75 9.97582 15.8093 9.83274 15.9148 9.72725C16.0202 9.62176 16.1633 9.5625 16.3125 9.5625C16.4617 9.5625 16.6048 9.62176 16.7102 9.72725C16.8157 9.83274 16.875 9.97582 16.875 10.125V16.875H17.4375C17.5867 16.875 17.7298 16.9343 17.8352 17.0398C17.9407 17.1452 18 17.2883 18 17.4375C18 17.5867 17.9407 17.7298 17.8352 17.8352C17.7298 17.9407 17.5867 18 17.4375 18H0.5625C0.413316 18 0.270242 17.9407 0.164752 17.8352C0.0592632 17.7298 1.62726e-08 17.5867 1.62726e-08 17.4375C1.62726e-08 17.2883 0.0592632 17.1452 0.164752 17.0398C0.270242 16.9343 0.413316 16.875 0.5625 16.875H1.125V10.125C1.125 9.97582 1.18426 9.83274 1.28975 9.72725C1.39524 9.62176 1.53832 9.5625 1.6875 9.5625ZM4.5 16.875H7.875V11.25H4.5V16.875ZM10.125 11.25C10.125 10.9516 10.2435 10.6655 10.4545 10.4545C10.6655 10.2435 10.9516 10.125 11.25 10.125H13.5C13.7984 10.125 14.0845 10.2435 14.2955 10.4545C14.5065 10.6655 14.625 10.9516 14.625 11.25V14.625C14.625 14.9234 14.5065 15.2095 14.2955 15.4205C14.0845 15.6315 13.7984 15.75 13.5 15.75H11.25C10.9516 15.75 10.6655 15.6315 10.4545 15.4205C10.2435 15.2095 10.125 14.9234 10.125 14.625V11.25ZM13.5 11.25H11.25V14.625H13.5V11.25Z" fill="#1f3a89"/>
</g>
<defs>
<clipPath id="clip0_81_413">
<rect width="18" height="18" fill="white"/>
</clipPath>
</defs>
</svg>
