<svg width="42" height="42" viewBox="0 0 48 48" fill="none" xmlns="http://www.w3.org/2000/svg">
<g clip-path="url(#clip0_463_1687)">
<path d="M8.91 4.05C9.19166 3.7207 9.54131 3.45633 9.9349 3.27507C10.3285 3.09381 10.7567 2.99997 11.19 3H36.81C37.2433 2.99997 37.6715 3.09381 38.0651 3.27507C38.4587 3.45633 38.8083 3.7207 39.09 4.05L46.917 13.182C47.6158 13.9975 48 15.036 48 16.11V16.875C48.0002 18.3599 47.5364 19.8078 46.6735 21.0163C45.8105 22.2247 44.5916 23.1334 43.187 23.6152C41.7825 24.0971 40.2624 24.1281 38.8394 23.7038C37.4164 23.2796 36.1614 22.4213 35.25 21.249C34.5844 22.1063 33.7315 22.7999 32.7565 23.2768C31.7815 23.7536 30.7103 24.001 29.625 24C28.5396 24.0012 27.4684 23.7539 26.4934 23.2771C25.5183 22.8002 24.6654 22.1065 24 21.249C23.3346 22.1065 22.4817 22.8002 21.5066 23.2771C20.5316 23.7539 19.4604 24.0012 18.375 24C17.2896 24.0012 16.2184 23.7539 15.2434 23.2771C14.2683 22.8002 13.4154 22.1065 12.75 21.249C11.8386 22.4213 10.5836 23.2796 9.16061 23.7038C7.73758 24.1281 6.21755 24.0971 4.81297 23.6152C3.4084 23.1334 2.18947 22.2247 1.32655 21.0163C0.463625 19.8078 -0.000163796 18.3599 4.33936e-08 16.875V16.11C3.78226e-05 15.036 0.38417 13.9975 1.083 13.182L8.913 4.047L8.91 4.05ZM14.25 16.875C14.25 17.969 14.6846 19.0182 15.4582 19.7918C16.2318 20.5654 17.281 21 18.375 21C19.469 21 20.5182 20.5654 21.2918 19.7918C22.0654 19.0182 22.5 17.969 22.5 16.875C22.5 16.4772 22.658 16.0956 22.9393 15.8143C23.2206 15.533 23.6022 15.375 24 15.375C24.3978 15.375 24.7794 15.533 25.0607 15.8143C25.342 16.0956 25.5 16.4772 25.5 16.875C25.5 17.969 25.9346 19.0182 26.7082 19.7918C27.4818 20.5654 28.531 21 29.625 21C30.719 21 31.7682 20.5654 32.5418 19.7918C33.3154 19.0182 33.75 17.969 33.75 16.875C33.75 16.4772 33.908 16.0956 34.1893 15.8143C34.4706 15.533 34.8522 15.375 35.25 15.375C35.6478 15.375 36.0294 15.533 36.3107 15.8143C36.592 16.0956 36.75 16.4772 36.75 16.875C36.75 17.969 37.1846 19.0182 37.9582 19.7918C38.7318 20.5654 39.781 21 40.875 21C41.969 21 43.0182 20.5654 43.7918 19.7918C44.5654 19.0182 45 17.969 45 16.875V16.11C45 15.7525 44.8724 15.4067 44.64 15.135L36.81 6H11.19L3.36 15.135C3.12764 15.4067 2.99997 15.7525 3 16.11V16.875C3 17.969 3.4346 19.0182 4.20818 19.7918C4.98177 20.5654 6.03098 21 7.125 21C8.21902 21 9.26823 20.5654 10.0418 19.7918C10.8154 19.0182 11.25 17.969 11.25 16.875C11.25 16.4772 11.408 16.0956 11.6893 15.8143C11.9706 15.533 12.3522 15.375 12.75 15.375C13.1478 15.375 13.5294 15.533 13.8107 15.8143C14.092 16.0956 14.25 16.4772 14.25 16.875V16.875ZM4.5 25.5C4.89782 25.5 5.27936 25.658 5.56066 25.9393C5.84196 26.2206 6 26.6022 6 27V45H9V30C9 29.2044 9.31607 28.4413 9.87868 27.8787C10.4413 27.3161 11.2044 27 12 27H21C21.7956 27 22.5587 27.3161 23.1213 27.8787C23.6839 28.4413 24 29.2044 24 30V45H42V27C42 26.6022 42.158 26.2206 42.4393 25.9393C42.7206 25.658 43.1022 25.5 43.5 25.5C43.8978 25.5 44.2794 25.658 44.5607 25.9393C44.842 26.2206 45 26.6022 45 27V45H46.5C46.8978 45 47.2794 45.158 47.5607 45.4393C47.842 45.7206 48 46.1022 48 46.5C48 46.8978 47.842 47.2794 47.5607 47.5607C47.2794 47.842 46.8978 48 46.5 48H1.5C1.10218 48 0.720644 47.842 0.43934 47.5607C0.158035 47.2794 4.33936e-08 46.8978 4.33936e-08 46.5C4.33936e-08 46.1022 0.158035 45.7206 0.43934 45.4393C0.720644 45.158 1.10218 45 1.5 45H3V27C3 26.6022 3.15804 26.2206 3.43934 25.9393C3.72064 25.658 4.10218 25.5 4.5 25.5V25.5ZM12 45H21V30H12V45ZM27 30C27 29.2044 27.3161 28.4413 27.8787 27.8787C28.4413 27.3161 29.2044 27 30 27H36C36.7956 27 37.5587 27.3161 38.1213 27.8787C38.6839 28.4413 39 29.2044 39 30V39C39 39.7956 38.6839 40.5587 38.1213 41.1213C37.5587 41.6839 36.7956 42 36 42H30C29.2044 42 28.4413 41.6839 27.8787 41.1213C27.3161 40.5587 27 39.7956 27 39V30ZM36 30H30V39H36V30Z" fill="#1f3a89"/>
</g>
<defs>
<clipPath id="clip0_463_1687">
<rect width="48" height="48" fill="white"/>
</clipPath>
</defs>
</svg>
