<svg width="25" height="24" viewBox="0 0 25 24" fill="none" xmlns="http://www.w3.org/2000/svg">
<path d="M8.16669 11.25C8.16669 12.4008 8.61434 13.4836 9.42997 14.2992C10.2432 15.1148 11.3284 15.5625 12.4792 15.5625H12.8542C14.005 15.5625 15.0878 15.1148 15.9034 14.2992C16.719 13.4859 17.1667 12.4008 17.1667 11.25V4.3125H8.16669V11.25ZM4.97919 8.25C4.97919 9.21094 5.60966 10.0266 6.47919 10.3031C5.60966 10.0242 4.97919 9.20859 4.97919 8.25ZM13.5104 17.2148C16.2526 16.9172 18.4417 14.7703 18.8026 12.0469C18.4393 14.7703 16.2526 16.9148 13.5104 17.2148ZM6.53075 12.0469C6.89169 14.7703 9.08075 16.9172 11.8229 17.2148C9.08075 16.9148 6.89403 14.7703 6.53075 12.0469Z" fill="#FFBF1E" fill-opacity="0.15"/>
<path d="M21.0104 3.75H18.8542V2.8125C18.8542 2.70937 18.7698 2.625 18.6667 2.625H6.66669C6.56356 2.625 6.47919 2.70937 6.47919 2.8125V3.75H4.32294C4.04943 3.75 3.78713 3.85865 3.59373 4.05205C3.40034 4.24544 3.29169 4.50775 3.29169 4.78125V8.25C3.29169 10.1648 4.69794 11.7563 6.53075 12.0469C6.89403 14.7703 9.08075 16.9148 11.8229 17.2148V19.6805H7.22919C6.81434 19.6805 6.47919 20.0156 6.47919 20.4305V21.1875C6.47919 21.2906 6.56356 21.375 6.66669 21.375H18.6667C18.7698 21.375 18.8542 21.2906 18.8542 21.1875V20.4305C18.8542 20.0156 18.519 19.6805 18.1042 19.6805H13.5104V17.2148C16.2526 16.9148 18.4393 14.7703 18.8026 12.0469C20.6354 11.7563 22.0417 10.1648 22.0417 8.25V4.78125C22.0417 4.50775 21.933 4.24544 21.7396 4.05205C21.5462 3.85865 21.2839 3.75 21.0104 3.75ZM6.47919 10.3031C6.04383 10.1641 5.66392 9.89025 5.39431 9.52122C5.1247 9.15219 4.97933 8.70703 4.97919 8.25V5.4375H6.47919V10.3031ZM17.1667 11.25C17.1667 12.4008 16.719 13.4859 15.9034 14.2992C15.0878 15.1148 14.005 15.5625 12.8542 15.5625H12.4792C11.3284 15.5625 10.2432 15.1148 9.42997 14.2992C8.61434 13.4836 8.16669 12.4008 8.16669 11.25V4.3125H17.1667V11.25ZM20.3542 8.25C20.3542 9.21094 19.7237 10.0266 18.8542 10.3031V5.4375H20.3542V8.25Z" fill="#FFBF1E"/>
</svg>
